<svg width="20" height="20" viewBox="0 0 20 20" fill="none" xmlns="http://www.w3.org/2000/svg">
<path d="M13.5179 13.345L13.8261 13.7387C13.8446 13.7242 13.8621 13.7084 13.8784 13.6915L13.5179 13.345ZM13.345 13.5179L13.6915 13.8784C13.7084 13.8621 13.7242 13.8446 13.7387 13.8261L13.345 13.5179ZM14.0959 15.5101L14.4495 15.1566C14.271 14.9781 13.9874 14.9606 13.7884 15.1159L14.0959 15.5101ZM15.5101 14.0959L15.1159 13.7884C14.9606 13.9874 14.9781 14.271 15.1566 14.4495L15.5101 14.0959ZM18.7071 17.2929L19.0607 16.9393V16.9393L18.7071 17.2929ZM18.7071 18.7071L19.0607 19.0607L19.0607 19.0607L18.7071 18.7071ZM17.2929 18.7071L16.9393 19.0607H16.9393L17.2929 18.7071ZM9.11111 2.5C5.4599 2.5 2.5 5.4599 2.5 9.11111H3.5C3.5 6.01218 6.01218 3.5 9.11111 3.5V2.5ZM15.7222 9.11111C15.7222 5.4599 12.7623 2.5 9.11111 2.5V3.5C12.21 3.5 14.7222 6.01218 14.7222 9.11111H15.7222ZM13.8784 13.6915C15.0198 12.5037 15.7222 10.8889 15.7222 9.11111H14.7222C14.7222 10.6204 14.127 11.9896 13.1574 12.9985L13.8784 13.6915ZM13.7798 13.7798C13.7947 13.7648 13.8102 13.7512 13.8261 13.7387L13.2098 12.9513C13.1621 12.9886 13.1163 13.0291 13.0727 13.0727L13.7798 13.7798ZM13.7387 13.8261C13.7512 13.8102 13.7648 13.7947 13.7798 13.7798L13.0727 13.0727C13.0291 13.1163 12.9886 13.1621 12.9513 13.2098L13.7387 13.8261ZM9.11111 15.7222C10.8889 15.7222 12.5037 15.0198 13.6915 13.8784L12.9985 13.1574C11.9896 14.127 10.6204 14.7222 9.11111 14.7222V15.7222ZM2.5 9.11111C2.5 12.7623 5.4599 15.7222 9.11111 15.7222V14.7222C6.01218 14.7222 3.5 12.21 3.5 9.11111H2.5ZM13.7884 15.1159C12.4978 16.1227 10.8752 16.7222 9.11111 16.7222V17.7222C11.1059 17.7222 12.9434 17.0434 14.4035 15.9044L13.7884 15.1159ZM9.11111 16.7222C4.90761 16.7222 1.5 13.3146 1.5 9.11111H0.5C0.5 13.8669 4.35533 17.7222 9.11111 17.7222V16.7222ZM1.5 9.11111C1.5 4.90761 4.90761 1.5 9.11111 1.5V0.5C4.35533 0.5 0.5 4.35533 0.5 9.11111H1.5ZM9.11111 1.5C13.3146 1.5 16.7222 4.90761 16.7222 9.11111H17.7222C17.7222 4.35533 13.8669 0.5 9.11111 0.5V1.5ZM16.7222 9.11111C16.7222 10.8752 16.1227 12.4978 15.1159 13.7884L15.9044 14.4035C17.0434 12.9434 17.7222 11.1059 17.7222 9.11111H16.7222ZM15.1566 14.4495L18.3536 17.6464L19.0607 16.9393L15.8637 13.7424L15.1566 14.4495ZM18.3536 17.6464C18.5488 17.8417 18.5488 18.1583 18.3536 18.3536L19.0607 19.0607C19.6464 18.4749 19.6464 17.5251 19.0607 16.9393L18.3536 17.6464ZM18.3536 18.3536C18.1583 18.5488 17.8417 18.5488 17.6464 18.3536L16.9393 19.0607C17.5251 19.6464 18.4749 19.6464 19.0607 19.0607L18.3536 18.3536ZM17.6464 18.3536L14.4495 15.1566L13.7424 15.8637L16.9393 19.0607L17.6464 18.3536Z" fill="black"/>
</svg>
