<svg width="49" height="13" viewBox="0 0 49 13" fill="none" xmlns="http://www.w3.org/2000/svg">
<path d="M3.46094 12H1.03125L1.04688 10.4453H3.46094C4.16406 10.4453 4.7526 10.2917 5.22656 9.98438C5.70573 9.67708 6.0651 9.23698 6.30469 8.66406C6.54948 8.09115 6.67188 7.40885 6.67188 6.61719V6C6.67188 5.38542 6.60156 4.84115 6.46094 4.36719C6.32552 3.89323 6.1224 3.49479 5.85156 3.17188C5.58594 2.84896 5.25781 2.60417 4.86719 2.4375C4.48177 2.27083 4.03646 2.1875 3.53125 2.1875H0.984375V0.625H3.53125C4.28646 0.625 4.97656 0.752604 5.60156 1.00781C6.22656 1.25781 6.76562 1.61979 7.21875 2.09375C7.67708 2.56771 8.02865 3.13542 8.27344 3.79688C8.51823 4.45833 8.64062 5.19792 8.64062 6.01562V6.61719C8.64062 7.4349 8.51823 8.17448 8.27344 8.83594C8.02865 9.4974 7.67708 10.0651 7.21875 10.5391C6.76042 11.0078 6.21354 11.3698 5.57812 11.625C4.94792 11.875 4.24219 12 3.46094 12ZM2.11719 0.625V12H0.15625V0.625H2.11719ZM14.1484 12.1562C13.5234 12.1562 12.9583 12.0547 12.4531 11.8516C11.9531 11.6432 11.526 11.3542 11.1719 10.9844C10.8229 10.6146 10.5547 10.1797 10.3672 9.67969C10.1797 9.17969 10.0859 8.64062 10.0859 8.0625V7.75C10.0859 7.08854 10.1823 6.48958 10.375 5.95312C10.5677 5.41667 10.8359 4.95833 11.1797 4.57812C11.5234 4.19271 11.9297 3.89844 12.3984 3.69531C12.8672 3.49219 13.375 3.39062 13.9219 3.39062C14.526 3.39062 15.0547 3.49219 15.5078 3.69531C15.9609 3.89844 16.3359 4.1849 16.6328 4.55469C16.9349 4.91927 17.1589 5.35417 17.3047 5.85938C17.4557 6.36458 17.5312 6.92188 17.5312 7.53125V8.33594H11V6.98438H15.6719V6.83594C15.6615 6.4974 15.5938 6.17969 15.4688 5.88281C15.349 5.58594 15.1641 5.34635 14.9141 5.16406C14.6641 4.98177 14.3307 4.89062 13.9141 4.89062C13.6016 4.89062 13.3229 4.95833 13.0781 5.09375C12.8385 5.22396 12.638 5.41406 12.4766 5.66406C12.3151 5.91406 12.1901 6.21615 12.1016 6.57031C12.0182 6.91927 11.9766 7.3125 11.9766 7.75V8.0625C11.9766 8.43229 12.026 8.77604 12.125 9.09375C12.2292 9.40625 12.3802 9.67969 12.5781 9.91406C12.776 10.1484 13.0156 10.3333 13.2969 10.4688C13.5781 10.599 13.8984 10.6641 14.2578 10.6641C14.7109 10.6641 15.1146 10.5729 15.4688 10.3906C15.8229 10.2083 16.1302 9.95052 16.3906 9.61719L17.3828 10.5781C17.2005 10.8438 16.9635 11.099 16.6719 11.3438C16.3802 11.5833 16.0234 11.7786 15.6016 11.9297C15.1849 12.0807 14.7005 12.1562 14.1484 12.1562ZM20.8828 5.26562V12H19V3.54688H20.7734L20.8828 5.26562ZM20.5781 7.46094L19.9375 7.45312C19.9375 6.86979 20.0104 6.33073 20.1562 5.83594C20.3021 5.34115 20.5156 4.91146 20.7969 4.54688C21.0781 4.17708 21.4271 3.89323 21.8438 3.69531C22.2656 3.49219 22.7526 3.39062 23.3047 3.39062C23.6901 3.39062 24.0417 3.44792 24.3594 3.5625C24.6823 3.67188 24.9609 3.84635 25.1953 4.08594C25.4349 4.32552 25.6172 4.63281 25.7422 5.00781C25.8724 5.38281 25.9375 5.83594 25.9375 6.36719V12H24.0547V6.53125C24.0547 6.11979 23.9922 5.79688 23.8672 5.5625C23.7474 5.32812 23.5729 5.16146 23.3438 5.0625C23.1198 4.95833 22.8516 4.90625 22.5391 4.90625C22.1849 4.90625 21.8828 4.97396 21.6328 5.10938C21.388 5.24479 21.1875 5.42969 21.0312 5.66406C20.875 5.89844 20.7604 6.16927 20.6875 6.47656C20.6146 6.78385 20.5781 7.11198 20.5781 7.46094ZM25.8203 6.96094L24.9375 7.15625C24.9375 6.64583 25.0078 6.16406 25.1484 5.71094C25.2943 5.2526 25.5052 4.85156 25.7812 4.50781C26.0625 4.15885 26.4089 3.88542 26.8203 3.6875C27.2318 3.48958 27.7031 3.39062 28.2344 3.39062C28.6667 3.39062 29.0521 3.45052 29.3906 3.57031C29.7344 3.6849 30.026 3.86719 30.2656 4.11719C30.5052 4.36719 30.6875 4.69271 30.8125 5.09375C30.9375 5.48958 31 5.96875 31 6.53125V12H29.1094V6.52344C29.1094 6.09635 29.0469 5.76562 28.9219 5.53125C28.8021 5.29688 28.6302 5.13542 28.4062 5.04688C28.1823 4.95312 27.9141 4.90625 27.6016 4.90625C27.3099 4.90625 27.0521 4.96094 26.8281 5.07031C26.6094 5.17448 26.4245 5.32292 26.2734 5.51562C26.1224 5.70312 26.0078 5.91927 25.9297 6.16406C25.8568 6.40885 25.8203 6.67448 25.8203 6.96094ZM32.5781 7.86719V7.6875C32.5781 7.07812 32.6667 6.51302 32.8438 5.99219C33.0208 5.46615 33.276 5.01042 33.6094 4.625C33.9479 4.23438 34.3594 3.93229 34.8438 3.71875C35.3333 3.5 35.8854 3.39062 36.5 3.39062C37.1198 3.39062 37.6719 3.5 38.1562 3.71875C38.6458 3.93229 39.0599 4.23438 39.3984 4.625C39.737 5.01042 39.9948 5.46615 40.1719 5.99219C40.349 6.51302 40.4375 7.07812 40.4375 7.6875V7.86719C40.4375 8.47656 40.349 9.04167 40.1719 9.5625C39.9948 10.0833 39.737 10.5391 39.3984 10.9297C39.0599 11.3151 38.6484 11.6172 38.1641 11.8359C37.6797 12.0495 37.1302 12.1562 36.5156 12.1562C35.8958 12.1562 35.3411 12.0495 34.8516 11.8359C34.3672 11.6172 33.9557 11.3151 33.6172 10.9297C33.2786 10.5391 33.0208 10.0833 32.8438 9.5625C32.6667 9.04167 32.5781 8.47656 32.5781 7.86719ZM34.4609 7.6875V7.86719C34.4609 8.2474 34.5 8.60677 34.5781 8.94531C34.6562 9.28385 34.7786 9.58073 34.9453 9.83594C35.112 10.0911 35.3255 10.2917 35.5859 10.4375C35.8464 10.5833 36.1562 10.6562 36.5156 10.6562C36.8646 10.6562 37.1667 10.5833 37.4219 10.4375C37.6823 10.2917 37.8958 10.0911 38.0625 9.83594C38.2292 9.58073 38.3516 9.28385 38.4297 8.94531C38.513 8.60677 38.5547 8.2474 38.5547 7.86719V7.6875C38.5547 7.3125 38.513 6.95833 38.4297 6.625C38.3516 6.28646 38.2266 5.98698 38.0547 5.72656C37.888 5.46615 37.6745 5.26302 37.4141 5.11719C37.1589 4.96615 36.8542 4.89062 36.5 4.89062C36.1458 4.89062 35.8385 4.96615 35.5781 5.11719C35.3229 5.26302 35.112 5.46615 34.9453 5.72656C34.7786 5.98698 34.6562 6.28646 34.5781 6.625C34.5 6.95833 34.4609 7.3125 34.4609 7.6875ZM46.7578 9.71094C46.7578 9.52344 46.7109 9.35417 46.6172 9.20312C46.5234 9.04688 46.3438 8.90625 46.0781 8.78125C45.8177 8.65625 45.4323 8.54167 44.9219 8.4375C44.474 8.33854 44.0625 8.22135 43.6875 8.08594C43.3177 7.94531 43 7.77604 42.7344 7.57812C42.4688 7.38021 42.263 7.14583 42.1172 6.875C41.9714 6.60417 41.8984 6.29167 41.8984 5.9375C41.8984 5.59375 41.974 5.26823 42.125 4.96094C42.276 4.65365 42.4922 4.38281 42.7734 4.14844C43.0547 3.91406 43.3958 3.72917 43.7969 3.59375C44.2031 3.45833 44.6562 3.39062 45.1562 3.39062C45.8646 3.39062 46.4714 3.51042 46.9766 3.75C47.487 3.98438 47.8776 4.30469 48.1484 4.71094C48.4193 5.11198 48.5547 5.5651 48.5547 6.07031H46.6719C46.6719 5.84635 46.6146 5.63802 46.5 5.44531C46.3906 5.2474 46.224 5.08854 46 4.96875C45.776 4.84375 45.4948 4.78125 45.1562 4.78125C44.8333 4.78125 44.5651 4.83333 44.3516 4.9375C44.1432 5.03646 43.987 5.16667 43.8828 5.32812C43.7839 5.48958 43.7344 5.66667 43.7344 5.85938C43.7344 6 43.7604 6.1276 43.8125 6.24219C43.8698 6.35156 43.9635 6.45312 44.0938 6.54688C44.224 6.63542 44.401 6.71875 44.625 6.79688C44.8542 6.875 45.1406 6.95052 45.4844 7.02344C46.1302 7.15885 46.6849 7.33333 47.1484 7.54688C47.6172 7.75521 47.9766 8.02604 48.2266 8.35938C48.4766 8.6875 48.6016 9.10417 48.6016 9.60938C48.6016 9.98438 48.5208 10.3281 48.3594 10.6406C48.2031 10.9479 47.974 11.2161 47.6719 11.4453C47.3698 11.6693 47.0078 11.8438 46.5859 11.9688C46.1693 12.0938 45.7005 12.1562 45.1797 12.1562C44.4141 12.1562 43.7656 12.0208 43.2344 11.75C42.7031 11.474 42.2995 11.1224 42.0234 10.6953C41.7526 10.263 41.6172 9.8151 41.6172 9.35156H43.4375C43.4583 9.70052 43.5547 9.97917 43.7266 10.1875C43.9036 10.3906 44.1224 10.5391 44.3828 10.6328C44.6484 10.7214 44.9219 10.7656 45.2031 10.7656C45.5417 10.7656 45.8255 10.7214 46.0547 10.6328C46.2839 10.5391 46.4583 10.4141 46.5781 10.2578C46.6979 10.0964 46.7578 9.91406 46.7578 9.71094Z" fill="black"/>
</svg>
